<?xml version="1.0" encoding="utf-8"?>
<!-- Generator: Adobe Illustrator 24.0.3, SVG Export Plug-In . SVG Version: 6.00 Build 0)  -->
<svg version="1.1" id="Layer_1" xmlns="http://www.w3.org/2000/svg" xmlns:xlink="http://www.w3.org/1999/xlink" x="0px" y="0px"
	 viewBox="0 0 118.9 149.3" style="enable-background:new 0 0 118.9 149.3;" xml:space="preserve">
<style type="text/css">
	.st0{fill:none;stroke:#1C1B1B;stroke-width:3;stroke-linecap:round;stroke-linejoin:round;stroke-miterlimit:10;}
</style>
<g id="XMLID_1_" transform="translate(0 -0.019)">
	<path id="XMLID_14_" class="st0" d="M28.6,122.8H15.9L1.5,138.1h78.2l-4.2-11.2l-7.4-0.7"/>
	<path id="XMLID_13_" class="st0" d="M1.5,138.1v9.7h78.2v-9.7"/>
	<path id="XMLID_12_" class="st0" d="M41.2,66.5l5.1,13.2h15.5v45.7"/>
	<path id="XMLID_11_" class="st0" d="M27.5,56.9L11.9,8.1l8.7-2.7l14.9,47.8"/>
	<path id="XMLID_10_" class="st0" d="M38.3,127.3V84.5l-4.7-12.9"/>
	<path id="XMLID_9_" class="st0" d="M50.5,49.8L38.1,7.4c-0.6-2.2-2.1-4.1-4.2-5.1l0,0c-1.5-0.7-3.2-1-4.8-0.7l-3.3,0.5"/>
	<path id="XMLID_8_" class="st0" d="M57.1,78.9V67.2c0-3.6-1.9-7-5.1-8.8l0,0c-2.9-1.7-6.4-1.9-9.4-0.5l-16.3,7.4
		c-5.7,2.5-9.3,8.2-9.3,14.4l0,0"/>
	<line id="XMLID_7_" class="st0" x1="77.5" y1="61.1" x2="55.6" y2="61.1"/>
	<path id="XMLID_6_" class="st0" d="M100.9,88.2h-6v4.5c0,1.7-1.4,3.1-3.1,3.1h-8c-1.7,0-3.1-1.4-3.1-3.1v-4.6H74"/>
	<path id="XMLID_5_" class="st0" d="M61.8,79.7h19.8l3.1-25c0.8-3.3,3.9-5.6,7.4-5.3l10.5,1.1l1.6-5.3"/>
	<path id="XMLID_4_" class="st0" d="M93.9,42.1L93.9,42.1c1.8-1.2,4.2-1.2,6,0l10.1,6.8c1.6,1.1,3.7,0.7,4.8-0.7l1.7-2.2
		c1.2-1.6,0.9-3.9-0.7-5.1c-0.1-0.1-0.2-0.1-0.3-0.2L104.5,34c-4.1-2.5-9.4-1.2-11.9,2.9c-0.6,1-1,2.2-1.2,3.4v0.2
		c-0.2,0.9,0.4,1.7,1.3,1.8C93.2,42.4,93.6,42.3,93.9,42.1z"/>
	<path id="XMLID_3_" class="st0" d="M49.9,47.8c0,0,15.8-3.4,14.7,13.4"/>
	<path id="XMLID_2_" class="st0" d="M81.6,79.7h8.6c5.1,0,9.3-4.2,9.3-9.3c0-5.1-4.2-9.3-9.3-9.3"/>
</g>
</svg>
