<?xml version="1.0" encoding="utf-8"?>
<!-- Generator: Adobe Illustrator 24.0.3, SVG Export Plug-In . SVG Version: 6.00 Build 0)  -->
<svg version="1.1" id="Layer_1" xmlns="http://www.w3.org/2000/svg" xmlns:xlink="http://www.w3.org/1999/xlink" x="0px" y="0px"
	 viewBox="0 0 188.5 110.7" style="enable-background:new 0 0 188.5 110.7;" xml:space="preserve">
<style type="text/css">
	.st0{fill:none;stroke:#FFFFFF;stroke-width:3;stroke-linecap:round;stroke-linejoin:round;stroke-miterlimit:10;}
	.st1{fill:none;stroke:#FFFFFF;}
</style>
<g id="XMLID_1_" transform="translate(0.153)">
	<path id="XMLID_17_" class="st0" d="M1.3,59.2c0.5-4.4,2.9-21.8,17.8-34.4C25.5,19.6,32.9,16,41,14.1c0,0,6.4-5.4,49.4-7h27.9v7
		c-13.8-1.1-28.8-1.7-44.7-1.4c-11.5,0.1-22.3,0.7-32.6,1.4"/>
	<line id="XMLID_16_" class="st0" x1="186.8" y1="1.5" x2="186.8" y2="16.9"/>
	<path id="XMLID_15_" class="st0" d="M154.6,18.9l4.5,22.2l3.7-22.2L154.6,18.9z"/>
	<path id="XMLID_14_" class="st0" d="M81.3,105l29.3-4.5l-29.3-3.7V105z"/>
	<path id="XMLID_13_" class="st0" d="M159.3,41.1c0.3,4.6,0.2,9.2-0.2,13.8c-1.1,9.7-2,18.3-8.2,25.5c-1.4,1.7-9.9,10.9-23.3,10.7
		c-9-0.1-17.3-4.5-22.4-11.9c-7.2-10.7-4.8-26.7,5.1-35s25.8-8.1,35.7,0.2c12.3,10.4,10.5,28.6,4.2,38.8c-5.5,8.7-14.8,12.2-20,14.1
		c-6.2,2.3-12.7,3.3-19.3,3.1"/>
	<line id="XMLID_12_" class="st0" x1="61.5" y1="100.5" x2="50" y2="100.5"/>
	<line id="XMLID_11_" class="st0" x1="73.8" y1="109.2" x2="73.8" y2="105"/>
	<rect id="XMLID_10_" x="61.5" y="96.8" class="st0" width="19.8" height="8.4"/>
	<line id="XMLID_9_" class="st0" x1="47.9" y1="96.8" x2="47.9" y2="105"/>
	<line id="XMLID_8_" class="st0" x1="47.9" y1="100.5" x2="29.6" y2="100.5"/>
	<path id="XMLID_7_" class="st0" d="M151.9,9.1v9.8h13.8V9.1c0-3.8-3.1-6.9-6.9-6.9l0,0C155,2.2,151.9,5.3,151.9,9.1z"/>
	<path id="XMLID_6_" class="st1" d="M154.3,16.5V9.1c0-2.5,2-4.5,4.5-4.5c2.5,0,4.5,2,4.5,4.5v7.4H154.3z"/>
	<path id="XMLID_5_" class="st0" d="M170.3,4h5.1c1.9,0,3.5,1.5,3.5,3.5v3.8c0,1.9-1.5,3.5-3.5,3.5h-9.7"/>
	<line id="XMLID_4_" class="st0" x1="178.9" y1="9.1" x2="186.8" y2="9.1"/>
	<line id="XMLID_3_" class="st0" x1="118.1" y1="7.2" x2="151.9" y2="7.2"/>
	<line id="XMLID_2_" class="st0" x1="118.1" y1="14.1" x2="151.9" y2="16.1"/>
</g>
</svg>
