<?xml version="1.0" encoding="utf-8"?>
<!-- Generator: Adobe Illustrator 24.0.3, SVG Export Plug-In . SVG Version: 6.00 Build 0)  -->
<svg version="1.1" id="Layer_1" xmlns="http://www.w3.org/2000/svg" xmlns:xlink="http://www.w3.org/1999/xlink" x="0px" y="0px"
	 viewBox="0 0 121 150.1" style="enable-background:new 0 0 121 150.1;" xml:space="preserve">
<style type="text/css">
	.st0{fill:none;stroke:#FFFFFF;stroke-width:3;stroke-linecap:round;stroke-linejoin:round;stroke-miterlimit:10;}
</style>
<g id="XMLID_1_" transform="translate(0.476 -0.033)">
	<g id="XMLID_6_" transform="translate(1.5 1.554)">
		<path id="XMLID_17_" class="st0" d="M83.4,31.7c0,4.8-3.9,8.7-8.7,8.7c-4.8,0-8.7-3.9-8.7-8.7c0-4.8,3.9-8.7,8.7-8.7
			C79.5,23,83.4,26.8,83.4,31.7C83.4,31.6,83.4,31.7,83.4,31.7z"/>
		<path id="XMLID_16_" class="st0" d="M104.3,104.2H20.8"/>
		<path id="XMLID_15_" class="st0" d="M80,76.6l-8.7-4.1c-2.9-1.4-4.1-4.8-2.8-7.7L97.8,3.3c1.4-2.9,4.8-4.1,7.7-2.8l8.7,4.1
			c2.9,1.4,4.1,4.8,2.8,7.7L87.8,73.8C86.4,76.7,82.9,77.9,80,76.6z"/>
		<path id="XMLID_14_" class="st0" d="M69.2,69.8l-2.8,13.1c-0.2,1.1,0.3,2.3,1.3,2.9l2.5,1.3c1,0.5,2.3,0.3,3.1-0.5l9.7-10"/>
		<path id="XMLID_13_" class="st0" d="M93.1,104.2c-16.9,20-46.7,22.6-66.7,5.7c-2.1-1.7-4-3.6-5.7-5.7c-16.7-20.1-14-50,6.2-66.8
			c8.5-7,19.1-10.9,30.2-10.9c3.4,0,6.7,0.4,10,1.1l0,0"/>
		<line id="XMLID_12_" class="st0" x1="41.9" y1="96.4" x2="87.6" y2="96.4"/>
		<line id="XMLID_11_" class="st0" x1="47.7" y1="132" x2="47.7" y2="120.1"/>
		<line id="XMLID_10_" class="st0" x1="62.6" y1="132" x2="62.6" y2="120.7"/>
		<path id="XMLID_9_" class="st0" d="M-0.5,140.8l3.8-8.8h103.1l4.8,8.8"/>
		<line id="XMLID_8_" class="st0" x1="1" y1="147.1" x2="106.3" y2="147.1"/>
		<line id="XMLID_7_" class="st0" x1="83.2" y1="34.1" x2="102.4" y2="43"/>
	</g>
	<path id="XMLID_4_" class="st0" d="M32.7,105.1c-15.8-15.4-16.4-42.5-0.4-58c9.7-9.2,23.4-12.8,36.3-9.6"/>
</g>
</svg>
