<?xml version="1.0" encoding="utf-8"?>
<!-- Generator: Adobe Illustrator 24.0.3, SVG Export Plug-In . SVG Version: 6.00 Build 0)  -->
<svg version="1.1" id="Layer_1" xmlns="http://www.w3.org/2000/svg" xmlns:xlink="http://www.w3.org/1999/xlink" x="0px" y="0px"
	 viewBox="0 0 129.6 141.2" style="enable-background:new 0 0 129.6 141.2;" xml:space="preserve">
<style type="text/css">
	.st0{fill:none;stroke:#1C1B1B;stroke-width:3;stroke-linecap:round;stroke-linejoin:round;stroke-miterlimit:10;}
	.st1{fill:none;stroke:#1C1B1B;stroke-width:3.0003;stroke-linecap:round;stroke-linejoin:round;stroke-miterlimit:10.001;}
</style>
<g id="XMLID_1_" transform="translate(-0.042 0.202)">
	<g id="XMLID_14_" transform="translate(1.529 12.874)">
		<g id="XMLID_17_">
			<path id="XMLID_18_" class="st0" d="M1.4,9.8c-1.1,1.1-1.6,2.7-1.3,4.3c0.3,1.6,1.2,2.9,2.6,3.7c0.9,0.5,1.9,0.6,3,0.4
				c0.4-0.1,0.8-0.2,1.2-0.3c26.5,16,53,32.1,79.6,48.1c6.4,3.8,9.4,11.4,7.3,18.5c-0.1,0.4-0.2,0.7-0.3,1.1
				c-1.6,4.1-3.9,10.5-7.4,20.8l0,0c-0.9-0.5-1.8-0.9-2.8-1c-4.6-0.4-8.8,4.1-9.2,9.9c-0.5,5.9,2.7,10.9,7.3,11.4s8.8-4.1,9.2-9.9
				c0.2-1.7,0-3.4-0.5-5L101,83.1l10.6,26.6c-0.8,1.5-1.2,3.2-1.3,4.9c-0.3,5.8,3,10.7,7.4,10.9c4.5,0.3,8.4-4.2,8.8-10
				s-3-10.7-7.4-10.9c-1.1-0.1-2.1,0.1-3.1,0.5l-11.9-35.8l3.2-0.4c0.2-0.4,0.2-0.8,0.1-1.2l-2-4.3L14.9,8.8L11,1.3
				c-0.4-0.9-1.3-1.5-2.3-1.4C8.2-0.1,7.7,0.2,7.3,0.6c-0.7,1-0.8,2.2-0.2,3.3l6,10.6l91.1,54.9"/>
		</g>
		<path id="XMLID_16_" class="st0" d="M86.3,116.4c-0.4,3.4-2.5,5.9-4.7,5.7s-3.6-3.2-3.3-6.6c0.4-3.4,2.5-5.9,4.7-5.7
			C85.2,110.2,86.7,113,86.3,116.4z"/>
		
			<ellipse id="XMLID_15_" transform="matrix(1.399863e-02 -0.9999 0.9999 1.399863e-02 1.6374 231.8464)" class="st1" cx="118.4" cy="115.1" rx="6.1" ry="3.9"/>
	</g>
	<g id="XMLID_9_" transform="translate(29.957 7.194)">
		<line id="XMLID_13_" class="st0" x1="90.4" y1="56.5" x2="67.2" y2="42.1"/>
		<line id="XMLID_12_" class="st0" x1="23.1" y1="14.4" x2="0" y2="-0.2"/>
		<path id="XMLID_11_" class="st0" d="M23.1,14.3l2.5,0.2c4.7,0.5,9.2,2.2,13.1,4.7l17.4,10.9c4.3,2.7,7.9,6.4,10.5,10.7l0.7,1.1
			l0,0c-5.4,0.4-11.5-1.3-17.1-4.7L35,27.7c-4.4-2.6-8-6.3-10.5-10.7L23.1,14.3z"/>
	</g>
	<path id="XMLID_8_" class="st0" d="M29.3,6.7c-0.7,1-2.8,0.7-4.9-0.7s-3.3-3.2-2.7-4.2c0.7-1,2.8-0.7,4.9,0.7S30,5.7,29.3,6.7z"/>
	<path id="XMLID_3_" class="st0" d="M128,68.5c-0.7,1-2.8,0.7-4.9-0.7s-3.3-3.2-2.7-4.2c0.7-1,2.8-0.7,4.9,0.7
		C127.4,65.7,128.6,67.5,128,68.5z"/>
</g>
</svg>
