<?xml version="1.0" encoding="utf-8"?>
<!-- Generator: Adobe Illustrator 24.0.3, SVG Export Plug-In . SVG Version: 6.00 Build 0)  -->
<svg version="1.1" id="Layer_1" xmlns="http://www.w3.org/2000/svg" xmlns:xlink="http://www.w3.org/1999/xlink" x="0px" y="0px"
	 viewBox="0 0 173.1 141" style="enable-background:new 0 0 173.1 141;" xml:space="preserve">
<style type="text/css">
	.st0{fill:none;stroke:#FFFFFF;stroke-width:3;stroke-linecap:round;stroke-linejoin:round;stroke-miterlimit:10;}
</style>
<g id="Group_29" transform="translate(-0.02 0.1)">
	<path id="XMLID_8_" class="st0" d="M69,139.4c8.9-11.3,4.7-32.1,4.7-32.1c8.2,0.1,8.5-10.4,8.5-12.2V76.4
		c0.9-12.2-3.4-14.7-3.4-14.7c-9-8.4-10.6-13.4-10.8-26.2C67.9,22.6,60,20.4,60,20.4s3-0.7,9.1,0.5c5,1,10,1.5,15.1,1.5H89
		c5.1,0,10.1-0.6,15.1-1.5c6.2-1.2,9.1-0.5,9.1-0.5s-8,2.3-8.1,15.1s-1.8,17.8-10.8,26.2c0,0-4.4,2.5-3.4,14.7v18.7
		c0,1.9-0.4,12.1,8.5,12.2c0,0-4.2,20.9,4.7,32.1"/>
	<path id="XMLID_6_" class="st0" d="M36.4,47.2c0,0,12.7-2.4,16.4-11.7"/>
	<path id="XMLID_5_" class="st0" d="M136.8,47.2c0,0-12.7-2.4-16.4-11.7"/>
	<path id="XMLID_4_" class="st0" d="M120.4,42.6c0.4,10.4-4.7,20.3-13.3,26.1c0,0-1.8,4.3-1.2,12.3c0,0,4.6,24.9-6.5,26.3
		c-8.9-0.1-8.5-10.4-8.5-12.2V76.4c-0.9-12.2,3.4-14.7,3.4-14.7c9-8.4,10.6-13.4,10.8-26.2c0.1-12.8,8.1-15.1,8.1-15.1
		s-3-0.7-9.1,0.5c-5,1-10,1.5-15.1,1.5h-4.9c-5.1,0-10.1-0.6-15.1-1.5c-6.2-1.2-9.1-0.5-9.1-0.5s7.9,2.3,8.1,15.1
		c0.1,12.8,1.8,17.8,10.8,26.2c0,0,4.4,2.5,3.4,14.7v18.7c0,1.9-0.2,12.3-8.5,12.2C62.6,105.8,67.2,81,67.2,81
		c0.7-8.1-1.2-12.3-1.2-12.3C51.2,58.1,52.7,42.6,52.7,42.6c0.5-17.6-3.6-27.2-5.8-31.3c4.7,0.9,9.5,0.5,14-1.2c0.1,0,0.1,0,0.2-0.1
		c1.1-0.4,2.1-1,3.1-1.8c13.5-9,31.1-9,44.6,0c1,0.7,2,1.2,3.1,1.8c0.1,0,0.1,0,0.2,0.1c4.5,1.6,9.3,2,14,1.2
		C123.9,15.3,120,24.9,120.4,42.6z"/>
	<path id="XMLID_3_" class="st0" d="M51.8,27.1c-1.3-1.2-2.7-2.4-4.2-3.4c-3.5-2.5-7.4-4.1-11.6-4.9c-2-0.4-14.2-2.7-20.9,4.4
		c-1.7,1.8-2.9,4-3.4,6.4c-0.6,3.2-0.2,6.5,1.2,9.4l0,0c0.6,1.3,2.1,1.9,3.4,1.3c2.2-0.8,4.5-1.2,6.8-1.2c5.5,0,13,3.4,13.2,8.1l0,0
		c0.1,3.8-5,6.6-5.2,6.9c-2.2,1.1-4.7,1.5-7.1,1.3c-7.1-0.6-12-5.7-13.4-7.5C8.3,46.7,6.3,45,4.8,43C0,36.5,1,27,4.5,20.7
		C9.2,12,18.2,9.6,19.9,9.2c7-0.9,14.1-0.6,21,0.8c1.7,0.4,3.7,0.8,5.9,1.2"/>
	<path id="XMLID_2_" class="st0" d="M126.3,11.2c2.4-0.4,4.4-0.8,5.9-1.2c6.9-1.5,14.1-1.7,21.1-0.8C155,9.6,164,12,168.7,20.7
		c3.4,6.3,4.5,15.8-0.5,22.4c-1.5,2-3.5,3.7-5.7,4.9c-1.5,1.5-6.3,6.8-13.4,7.4c-2.4,0.3-4.9-0.2-7.1-1.3c-0.2-0.1-5.5-3-5.2-6.9
		l0,0c0.2-4.5,7.7-8.1,13.2-8.1c2.3-0.1,4.6,0.4,6.8,1.2c1.3,0.5,2.8,0,3.4-1.3l0,0c1.4-2.9,1.8-6.2,1.2-9.4
		c-0.6-2.4-1.8-4.6-3.4-6.4c-6.6-7.1-18.9-4.7-20.9-4.4c-4.1,0.9-8.1,2.6-11.6,4.9c-1.5,1-2.9,2.2-4.2,3.4"/>
</g>
</svg>
