<?xml version="1.0" encoding="utf-8"?>
<!-- Generator: Adobe Illustrator 24.0.3, SVG Export Plug-In . SVG Version: 6.00 Build 0)  -->
<svg version="1.1" id="Layer_1" xmlns="http://www.w3.org/2000/svg" xmlns:xlink="http://www.w3.org/1999/xlink" x="0px" y="0px"
	 viewBox="0 0 397.8 92.5" style="enable-background:new 0 0 397.8 92.5;" xml:space="preserve">
<style type="text/css">
	.st0{display:none;fill:#FFFFFF;}
	.st1{display:none;}
	.st2{display:inline;fill:#414042;}
	.st3{display:inline;fill:#ED1C24;}
	.st4{display:inline;fill:#2B3990;}
	.st5{fill:#414042;}
	.st6{fill:#DA1C5C;}
	.st7{fill:#ED1C24;}
	.st8{fill:#2B3990;}
</style>
<rect x="-79.9" y="-135" class="st0" width="570" height="350"/>
<g class="st1">
	<path class="st2" d="M54,155.4c-8.2-9.4-16.5-18.6-24.8-27.9c-0.6-0.7-1.1-1.7-2.4-1.2c-0.1,0.1-0.5-0.1-0.6-0.2
		c-1.1-1.7-3-1.8-4.7-2.4c-2-0.6-2.4-1.4-1.5-3.3c0.3-0.7,0.1-0.9-0.5-1.2c-1.4-0.7-2.9-0.8-4.3-0.2c-1.8,0.8-3.5,1.6-5.2,2.4
		c-1.5,0.7-1.6,1.2-1,2.7c0.8,2,0.4,3.7-1.2,4.6c-1.6,1-3.5,1.1-4.9-0.8c-0.7-0.9-1.5-1.4-2.7-1c-1.1,0.3-1,1.3-1.1,2.2
		c0,0.3,0,0.7-0.4,0.7s-0.6-0.3-0.7-0.7c-0.3-1.1,0.5-2.9,1.6-3.1c2-0.4,3.3-1.6,4.6-3c0.2-0.3,0.5-0.5,0.9-0.6c2-1,3.7-2.3,5.6-3.5
		c1.2-0.8,2.7-1.3,3.7-2.6c-0.9-0.4-1.6-0.2-2.3-0.1c-4.1,0.6-8-0.8-11.8-1.9c-1.5-0.4-2.3-1.8-2.2-3.3c0.1-1.6,1-2.6,2.6-3
		c3.2-0.8,5.3,1,4.9,4.3c-0.2,1.4,0.4,1.8,1.5,2c0.7,0.1,1.3,0.1,2-0.1c2.2-0.5,4.3-1.1,6.5-1.6c1.8-0.4,3.3-0.1,4.3,1.7
		c0.4,0.7,0.9,1.5,1.8,1.4s0.6-1.1,1-1.7c0.2-0.3,0.2-1,0.7-0.8c0.6,0.2,0.3,0.7,0.2,1.1c-0.2,0.9-0.7,1.7-0.1,2.7
		c1.9-1,2.8-0.6,3.1,1.6c0.2,1.4,0.6,2.6,1.5,3.6c0.5-1.4,1-1.9,1.8-1.4c0.7,0.6,1.4,1.3,1.8,2.1c0.3,0.6,0.3,1.1-0.3,1.6
		c-0.5,0.4-1,0.3-1.5-0.1c-0.2-0.2-0.4-0.7-0.8-0.2c-0.2,0.3-0.4,0.7-0.1,1.1s0.6,0.8,0.9,1.1c9.5,10.6,19,21.3,28.5,31.9
		c1.4,1.5,2.6,3.3,4.8,3.6c0,0,0,0.2,0.1,0.3c-0.8,0.2-1.6-0.6-2.2-0.2c-0.7,0.5,0.2,1.5-0.1,2.2c0,0-0.1,0-0.2,0.2
		C60,160.6,56.6,158.3,54,155.4z M0,109.7c-0.9,0.8-1.1,2.3-0.3,3.3c0.9,1.1,3,1.2,4.2,0.3c1-0.8,1.1-2.3,0.3-3.2
		C3.2,108.9,1.1,108.7,0,109.7z M4,127.8c0.8,0.8,2.4,0.8,3.4-0.1c1.1-0.9,1.3-2.4,0.6-3.3c-0.8-1-2.4-1-3.5,0
		C3.4,125.3,3.1,127,4,127.8z"/>
	<path class="st3" d="M50.5,128.1c-1.7,0-3.3,0.2-4.9,0.6l0.7,0.7c1.4-0.3,2.8-0.4,4.2-0.4c11.8,0,21.3,9.6,21.3,21.3
		s-9.6,21.3-21.3,21.3s-21.3-9.6-21.3-21.3c0-2.4,0.4-4.8,1.2-7l-0.6-0.7c-0.9,2.4-1.4,5-1.4,7.7c0,12.2,10,22.2,22.2,22.2
		s22.2-10,22.2-22.2S62.8,128.1,50.5,128.1z"/>
	<path class="st4" d="M86.3,150.3c0-19.7-16-35.7-35.7-35.7c-2.7,0-5.3,0.3-7.8,0.9l0.4,0.8c2.4-0.5,4.8-0.8,7.4-0.8
		c19.2,0,34.9,15.7,34.9,34.9c0,10.6-4.7,20-12.1,26.4l0.4,0.8C81.4,171,86.3,161.2,86.3,150.3z"/>
</g>
<path class="st5" d="M71.8,48.2c0.8,2.6,1.2,5.4,1.2,8.3c0,16.3-13.3,29.6-29.6,29.6S13.8,72.8,13.8,56.5s13.3-29.6,29.6-29.6
	c2.2,0,4.4,0.3,6.5,0.7c0.1-0.8,0.1-1.9-0.1-3.1c-0.2-1-0.5-1.8-0.8-2.4c-0.8-0.1-1.8-0.3-2.8-0.3c-0.9-0.1-1.9-0.1-2.8-0.1
	c-19.2,0-34.8,15.6-34.8,34.8s15.6,34.8,34.8,34.8s34.8-15.6,34.8-34.8c0-2.9-0.4-5.6-1-8.3C77.2,48.2,71.8,48.2,71.8,48.2z"/>
<g>
	<rect y="24.9" class="st6" width="5.3" height="67.7"/>
	<path class="st6" d="M29.1,0C14.4,0,2.2,10.8,0,24.9h5.3C7.4,13.7,17.3,5.3,29,5.3c13.3,0,24.2,10.8,24.2,24.2
		c0,12.7-9.8,23.1-22.3,24.1l-3.2,5.3c0.4,0,0.9,0,1.3,0c16.2,0,29.4-13.2,29.4-29.4S45.3,0,29.1,0z"/>
</g>
<g>
	<path class="st5" d="M105.1,46.1c0.1,0,0.2,0.1,0.2,0.2v1.1c0,0.1-0.1,0.2-0.2,0.2H101v3h5.2c0.1,0,0.2,0.1,0.2,0.2V52
		c0,0.1-0.1,0.2-0.2,0.2h-6.7c-0.1,0-0.2-0.1-0.2-0.2V42c0-0.1,0.1-0.2,0.2-0.2h6.7c0.1,0,0.2,0.1,0.1,0.2l-0.3,1.2
		c0,0.1-0.1,0.1-0.2,0.1H101v2.8H105.1z"/>
	<path class="st5" d="M111.5,45.7c0.1,0.2,0.2,0.2,0.3,0c0.6-0.6,1.3-0.9,2-0.9c1.7,0,2.7,1,2.7,2.8v4.3c0,0.1-0.1,0.2-0.2,0.2H115
		c-0.1,0-0.2-0.1-0.2-0.2v-4.1c0-0.9-0.5-1.5-1.3-1.5c-1.1,0-1.7,0.8-1.7,2.2v3.4c0,0.1-0.1,0.2-0.2,0.2h-1.3
		c-0.1,0-0.2-0.1-0.2-0.2v-6.8c0-0.1,0.1-0.2,0.2-0.2h0.7c0.1,0,0.2,0,0.2,0.1L111.5,45.7z"/>
	<path class="st5" d="M126.9,51.9c0,0.1-0.1,0.2-0.2,0.2H126c-0.1,0-0.2,0-0.2-0.1l-0.2-0.6c0-0.1-0.1-0.2-0.3,0
		c-0.5,0.6-1.2,0.9-2,0.9c-1.9,0-3.1-1.4-3.1-3.7s1.2-3.7,3.3-3.7c0.5,0,0.9,0.1,1.3,0.2l0.4,0.2v-3.5c0-0.1,0.1-0.2,0.2-0.2h1.3
		c0.1,0,0.2,0.1,0.2,0.2C126.9,41.8,126.9,51.9,126.9,51.9z M124.8,46.5c-0.4-0.2-0.7-0.2-1.2-0.2c-1.1,0-1.8,0.8-1.8,2.2
		s0.6,2.2,1.7,2.2s1.7-0.9,1.7-2.1v-1.9L124.8,46.5z"/>
	<path class="st5" d="M137.4,48.5c0,2.3-1.3,3.7-3.4,3.7c-2.1,0-3.4-1.4-3.4-3.7c0-2.2,1.3-3.7,3.4-3.7
		C136.1,44.8,137.4,46.2,137.4,48.5z M132.3,48.5c0,1.4,0.7,2.2,1.8,2.2s1.8-0.8,1.8-2.2s-0.7-2.2-1.8-2.2
		C132.9,46.3,132.3,47.1,132.3,48.5z"/>
	<path class="st5" d="M142.9,48.9c-1.2-0.3-1.8-0.9-1.8-2c0-1.3,1-2.1,2.7-2.1c0.7,0,1.3,0.1,1.8,0.2l0.6,0.2c0.1,0,0.1,0.1,0.1,0.2
		l-0.3,1.1c0,0.1-0.1,0.1-0.2,0.1l-0.6-0.2c-0.4-0.1-1-0.2-1.4-0.2c-0.7,0-1.1,0.2-1.1,0.6c0,0.3,0.2,0.5,0.7,0.7l1.5,0.4
		c1.3,0.3,1.8,1,1.8,2c0,1.4-1,2.2-2.8,2.2c-0.8,0-1.5-0.1-2.2-0.3l-0.6-0.2c-0.1,0-0.1-0.1-0.1-0.2l0.3-1.1c0-0.1,0.1-0.1,0.2-0.1
		l0.5,0.1c0.6,0.2,1.3,0.2,1.9,0.2c0.7,0,1.1-0.3,1.1-0.7c0-0.3-0.2-0.6-0.7-0.7L142.9,48.9z"/>
	<path class="st5" d="M155.4,51.3c-0.1-0.2-0.2-0.2-0.3,0c-0.6,0.6-1.3,0.9-2,0.9c-1.7,0-2.7-1-2.7-2.8v-4.3c0-0.1,0.1-0.2,0.2-0.2
		h1.3c0.1,0,0.2,0.1,0.2,0.2v4.1c0,0.9,0.5,1.5,1.3,1.5c1.1,0,1.7-0.8,1.7-2.2v-3.4c0-0.1,0.1-0.2,0.2-0.2h1.3
		c0.1,0,0.2,0.1,0.2,0.2v6.8c0,0.1-0.1,0.2-0.2,0.2h-0.7c-0.1,0-0.2,0-0.2-0.1L155.4,51.3z"/>
	<path class="st5" d="M164.8,46.1c0,0.1-0.1,0.2-0.2,0.2c-1.6,0.1-2.3,1.2-2.3,3.9v1.7c0,0.1-0.1,0.2-0.2,0.2h-1.3
		c-0.1,0-0.2-0.1-0.2-0.2v-6.8c0-0.1,0.1-0.2,0.2-0.2h0.7c0.1,0,0.2,0,0.2,0.1l0.2,0.8c0.1,0.2,0.2,0.2,0.3,0
		c0.6-0.8,1.2-1.1,2.3-1.2c0.1,0,0.2,0.1,0.2,0.2v1.3H164.8z"/>
	<path class="st5" d="M170,53.7c0.3,0.1,0.8,0.2,1.3,0.2c1,0,1.9-0.4,2.2-1.6c0-0.6,0.1-0.6,0.1-0.9c0-0.1-0.1-0.2-0.2,0
		c-0.5,0.5-1.2,0.8-2,0.8c-1.9,0-3.1-1.4-3.1-3.7c0-2.4,1.3-3.7,3.4-3.7c0.6,0,1.2,0.1,1.8,0.3l1.3,0.5c0.1,0,0.1,0.1,0.1,0.2V52
		c0,2.2-1.3,3.3-3.5,3.3c-0.5,0-1.2-0.1-1.6-0.2l-0.7-0.2c-0.1,0-0.1-0.1-0.1-0.2l0.3-1.1c0-0.1,0.1-0.1,0.2-0.1L170,53.7z
		 M172.8,46.5c-0.3-0.2-0.8-0.2-1.2-0.2c-1.1,0-1.8,0.8-1.8,2.2c0,1.3,0.6,2.2,1.7,2.2c1.1,0,1.7-0.8,1.7-2.2v-1.8L172.8,46.5z"/>
	<path class="st5" d="M183.5,52c-0.5,0.1-1,0.2-1.5,0.2c-2.2,0-3.5-1.4-3.5-3.7s1.3-3.7,3.4-3.7c1.8,0,2.8,0.9,2.8,2.3
		c0,1.1-0.7,1.8-2.2,2l-2.3,0.4c0.2,0.8,0.7,1.3,1.7,1.3c0.4,0,0.8,0,1.2-0.1l0.6-0.2c0.1,0,0.2,0,0.2,0.1l0.3,1.1
		c0,0.1,0,0.2-0.1,0.2L183.5,52z M182.4,47.9c0.5-0.1,0.8-0.3,0.8-0.7c0-0.6-0.5-0.9-1.2-0.9c-1,0-1.6,0.6-1.7,1.9L182.4,47.9z"/>
	<path class="st5" d="M192.6,46.1c0,0.1-0.1,0.2-0.2,0.2c-1.6,0.1-2.3,1.2-2.3,3.9v1.7c0,0.1-0.1,0.2-0.2,0.2h-1.3
		c-0.1,0-0.2-0.1-0.2-0.2v-6.8c0-0.1,0.1-0.2,0.2-0.2h0.7c0.1,0,0.2,0,0.2,0.1l0.2,0.8c0.1,0.2,0.2,0.2,0.3,0
		c0.6-0.8,1.2-1.1,2.3-1.2c0.1,0,0.2,0.1,0.2,0.2v1.3H192.6z"/>
	<path class="st5" d="M199.1,55c0,0.1-0.1,0.1-0.2,0.1h-1.3c-0.1,0-0.2-0.1-0.1-0.2l0.8-1.8c0.4-1,0.2-1.9-0.3-3.3l-1.9-4.7
		c0-0.1,0-0.2,0.1-0.2h1.4c0.1,0,0.1,0,0.2,0.1l1.2,2.8c0.2,0.7,0.5,1.6,0.6,2.1c0,0.1,0.2,0.1,0.2,0c0.1-0.5,0.4-1.5,0.6-2.1
		l1.1-2.8c0-0.1,0.1-0.1,0.2-0.1h1.4c0.1,0,0.2,0.1,0.1,0.2L199.1,55z"/>
</g>
<g>
	<path class="st7" d="M103,60.3c2.9,0,4.7,2,4.7,5.2c0,3.1-1.8,5.2-4.7,5.2h-3.6c-0.1,0-0.2-0.1-0.2-0.2v-10c0-0.1,0.1-0.2,0.2-0.2
		H103z M101.5,68.6h1.4c1.4,0,2.3-1.1,2.3-3.1s-0.9-3.1-2.3-3.1h-1.4V68.6z"/>
	<path class="st7" d="M116,65.2c0,0.1-0.1,0.2-0.2,0.2c-1.6,0.1-2.1,1-2.1,3.9v1.2c0,0.1-0.1,0.2-0.2,0.2h-1.9
		c-0.1,0-0.2-0.1-0.2-0.2v-6.8c0-0.1,0.1-0.2,0.2-0.2h1c0.1,0,0.2,0,0.2,0.1l0.4,0.6c0.1,0.2,0.2,0.2,0.4,0c0.6-0.7,1.2-0.9,2.2-0.9
		c0.1,0,0.2,0.1,0.2,0.2V65.2z"/>
	<path class="st7" d="M129,60.3c2.3,0,3.7,1.3,3.7,3.4c0,2.3-1.6,3.6-4.2,3.6h-1.3v3.1c0,0.1-0.1,0.2-0.2,0.2h-2
		c-0.1,0-0.2-0.1-0.2-0.2v-10c0-0.1,0.1-0.2,0.2-0.2L129,60.3L129,60.3z M127.3,65.3h1.3c1.2,0,1.8-0.6,1.8-1.5s-0.5-1.4-1.3-1.4
		h-1.8V65.3z"/>
	<path class="st7" d="M141,65.2c0,0.1-0.1,0.2-0.2,0.2c-1.6,0.1-2.1,1-2.1,3.9v1.2c0,0.1-0.1,0.2-0.2,0.2h-1.9
		c-0.1,0-0.2-0.1-0.2-0.2v-6.8c0-0.1,0.1-0.2,0.2-0.2h1c0.1,0,0.2,0,0.2,0.1l0.4,0.6c0.1,0.2,0.2,0.2,0.4,0c0.6-0.7,1.2-0.9,2.2-0.9
		c0.1,0,0.2,0.1,0.2,0.2L141,65.2L141,65.2z"/>
	<path class="st7" d="M145.4,63.6c0.5-0.1,1.1-0.2,1.6-0.2c2.2,0,3.5,1.1,3.5,2.8v4.3c0,0.1-0.1,0.2-0.2,0.2h-1.1
		c-0.1,0-0.2,0-0.2-0.1l-0.1-0.3c-0.1-0.2-0.2-0.2-0.5,0c-0.4,0.3-1,0.6-1.6,0.6c-1.7,0-2.8-0.9-2.8-2.3s1.1-2.2,2.9-2.2h1.4l0,0
		c-0.1-0.6-0.6-1-1.4-1c-0.3,0-0.6,0.1-1,0.1l-0.6,0.2c-0.1,0-0.2,0-0.2-0.1l-0.5-1.5c0-0.1,0-0.2,0.1-0.2L145.4,63.6z M146.9,67.8
		c-0.4,0-0.7,0.2-0.7,0.6s0.3,0.6,0.8,0.6c0.8,0,1.2-0.4,1.3-1.2l0,0H146.9z"/>
	<path class="st7" d="M158.8,63.5c0.1,0,0.2,0.1,0.2,0.2v1.6c0,0.1-0.1,0.2-0.2,0.2h-1.7v2.7c0,0.4,0.1,0.6,0.4,0.6
		c0.1,0,0.2,0,0.4-0.1c0.1,0,0.2,0,0.3,0.1l0.7,1.4c0,0.1,0,0.2-0.1,0.3c-0.4,0.2-0.8,0.3-1.3,0.3c-1.7,0-2.7-1-2.7-2.6v-2.7H154
		c-0.1,0-0.2-0.1-0.2-0.2v-1.6c0-0.1,0.1-0.2,0.2-0.2h0.8v-1.6c0-0.1,0-0.2,0.2-0.2l1.9-0.6c0.1,0,0.2,0,0.2,0.2v2.3h1.7V63.5z"/>
	<path class="st7" d="M164.9,61.8c0,0.8-0.1,1.3-0.4,1.8c-0.1,0.2,0,0.3,0.2,0.2c0.5-0.3,1-0.5,1.6-0.5c1.7,0,2.8,1,2.8,2.7v4.4
		c0,0.1-0.1,0.2-0.2,0.2H167c-0.1,0-0.2-0.1-0.2-0.2v-4.1c0-0.6-0.3-0.9-0.8-0.9c-0.7,0-1.1,0.5-1.1,1.5v3.6c0,0.1-0.1,0.2-0.2,0.2
		h-1.9c-0.1,0-0.2-0.1-0.2-0.2V60.2c0-0.1,0.1-0.2,0.2-0.2h1.9c0.1,0,0.2,0.1,0.2,0.2V61.8z"/>
	<path class="st7" d="M175.8,70.5c0,0.1-0.1,0.2-0.2,0.2h-1.9c-0.1,0-0.2-0.1-0.2-0.2v-4.9h-0.8c-0.1,0-0.2-0.1-0.2-0.2v-1.6
		c0-0.1,0.1-0.2,0.2-0.2h2.9c0.1,0,0.2,0.1,0.2,0.2V70.5z M175.7,61.2c0,0.8-0.5,1.3-1.3,1.3s-1.3-0.5-1.3-1.3s0.5-1.3,1.3-1.3
		C175.3,59.9,175.7,60.4,175.7,61.2z"/>
	<path class="st7" d="M181.2,64c0.1,0.2,0.2,0.2,0.5,0c0.6-0.5,1.2-0.6,1.6-0.6c0.6,0,1.3,0.2,1.8,0.7c0.3,0.2,0.4,0.2,0.7,0
		c0.7-0.6,1.2-0.6,1.7-0.6c1.8,0,2.7,1,2.7,2.7v4.4c0,0.1-0.1,0.2-0.2,0.2h-1.9c-0.1,0-0.2-0.1-0.2-0.2v-4.1c0-0.6-0.2-0.9-0.8-0.9
		c-0.7,0-1,0.5-1,1.5v3.6c0,0.1-0.1,0.2-0.2,0.2H184c-0.1,0-0.2-0.1-0.2-0.2v-4.2c0-0.6-0.2-0.9-0.8-0.9c-0.7,0-1,0.5-1,1.5v3.6
		c0,0.1-0.1,0.2-0.2,0.2h-1.9c-0.1,0-0.2-0.1-0.2-0.2v-6.8c0-0.1,0.1-0.2,0.2-0.2h1c0.1,0,0.2,0,0.2,0.1L181.2,64z"/>
	<path class="st7" d="M194.9,63.6c0.5-0.1,1.1-0.2,1.6-0.2c2.2,0,3.5,1.1,3.5,2.8v4.3c0,0.1-0.1,0.2-0.2,0.2h-1.1
		c-0.1,0-0.2,0-0.2-0.1l-0.1-0.3c-0.1-0.2-0.2-0.2-0.5,0c-0.4,0.3-1,0.6-1.6,0.6c-1.7,0-2.8-0.9-2.8-2.3s1.1-2.2,2.9-2.2h1.4l0,0
		c-0.1-0.6-0.6-1-1.4-1c-0.3,0-0.6,0.1-1,0.1l-0.6,0.2c-0.1,0-0.2,0-0.2-0.1l-0.5-1.5c0-0.1,0-0.2,0.1-0.2L194.9,63.6z M196.5,67.8
		c-0.4,0-0.7,0.2-0.7,0.6s0.3,0.6,0.8,0.6c0.8,0,1.2-0.4,1.3-1.2l0,0H196.5z"/>
	<path class="st7" d="M215.7,70.5c-0.8,0.3-1.4,0.3-2.2,0.3c-2.9,0-4.7-2.1-4.7-5.3c0-3.3,1.8-5.3,4.7-5.3c0.8,0,1.4,0.1,2.2,0.3
		l0.7,0.2c0.1,0,0.2,0.1,0.1,0.2l-0.5,1.6c0,0.1-0.1,0.2-0.2,0.1l-0.7-0.2c-0.4-0.1-0.8-0.2-1.5-0.2c-1.5,0-2.4,1.2-2.4,3.2
		c0,2.1,0.9,3.2,2.4,3.2c0.5,0,1,0,1.5-0.2l0.7-0.2c0.1,0,0.2,0,0.2,0.1l0.6,1.6c0,0.1,0,0.2-0.1,0.2L215.7,70.5z"/>
	<path class="st7" d="M222.7,61.8c0,0.8-0.1,1.3-0.4,1.8c-0.1,0.2,0,0.3,0.2,0.2c0.5-0.3,1-0.5,1.6-0.5c1.7,0,2.8,1,2.8,2.7v4.4
		c0,0.1-0.1,0.2-0.2,0.2h-1.9c-0.1,0-0.2-0.1-0.2-0.2v-4.1c0-0.6-0.3-0.9-0.8-0.9c-0.7,0-1.1,0.5-1.1,1.5v3.6c0,0.1-0.1,0.2-0.2,0.2
		h-1.9c-0.1,0-0.2-0.1-0.2-0.2V60.2c0-0.1,0.1-0.2,0.2-0.2h1.9c0.1,0,0.2,0.1,0.2,0.2L222.7,61.8L222.7,61.8z"/>
	<path class="st7" d="M237.5,67.1c0,2.3-1.4,3.7-3.6,3.7c-2.2,0-3.6-1.4-3.6-3.7c0-2.3,1.4-3.7,3.6-3.7
		C236.1,63.4,237.5,64.8,237.5,67.1z M232.6,67.1c0,1.1,0.5,1.7,1.3,1.7s1.3-0.6,1.3-1.7s-0.5-1.7-1.3-1.7S232.6,66,232.6,67.1z"/>
	<path class="st7" d="M250.5,67.3c-0.4,1.5-0.6,2.2-0.8,3.2c0,0.1-0.1,0.2-0.2,0.2h-2.4c-0.1,0-0.2-0.1-0.2-0.2l-0.3-1.3l-0.2-0.6
		c-0.1-0.3-0.2-1-0.3-1.3c0-0.2-0.2-0.2-0.2,0c-0.1,0.4-0.2,1-0.3,1.3l-0.2,0.6c-0.1,0.5-0.2,0.8-0.3,1.3c0,0.1-0.1,0.2-0.2,0.2
		h-2.4c-0.1,0-0.2-0.1-0.2-0.2c-0.2-1-0.4-1.7-0.8-3.2l-1-3.6c0-0.1,0-0.2,0.2-0.2h1.9c0.1,0,0.2,0.1,0.2,0.2l0.3,1.4
		c0.3,1.2,0.4,2,0.6,2.9c0,0.2,0.2,0.2,0.3,0c0.2-1,0.6-2.1,0.9-3.3l0.3-1c0-0.1,0.1-0.2,0.2-0.2h1.3c0.1,0,0.2,0.1,0.2,0.2l0.3,1
		c0.3,1.2,0.7,2.3,0.9,3.3c0,0.2,0.2,0.2,0.3,0c0.2-1,0.3-1.7,0.6-2.9l0.3-1.4c0-0.1,0.1-0.2,0.2-0.2h1.9c0.1,0,0.2,0.1,0.2,0.2
		L250.5,67.3z"/>
	<path class="st7" d="M261.7,70.5c0,0.1-0.1,0.2-0.2,0.2h-1c-0.1,0-0.2,0-0.2-0.1l-0.2-0.3c-0.1-0.1-0.2-0.2-0.4,0
		c-0.5,0.5-1.2,0.6-1.9,0.6c-2,0-3.2-1.4-3.2-3.7c0-2.3,1.3-3.7,3.4-3.7c0.4,0,0.7,0,1,0.2l0.4,0.2v-3.4c0-0.1,0.1-0.2,0.2-0.2h1.9
		c0.1,0,0.2,0.1,0.2,0.2V70.5z M259.1,65.6c-0.2-0.1-0.6-0.2-0.9-0.2c-0.8,0-1.3,0.6-1.3,1.7s0.5,1.7,1.3,1.7c0.7,0,1.2-0.6,1.2-1.4
		v-1.7L259.1,65.6z"/>
	<path class="st7" d="M266.5,63.6c0.5-0.1,1.1-0.2,1.6-0.2c2.2,0,3.5,1.1,3.5,2.8v4.3c0,0.1-0.1,0.2-0.2,0.2h-1.1
		c-0.1,0-0.2,0-0.2-0.1l-0.1-0.3c-0.1-0.2-0.2-0.2-0.5,0c-0.4,0.3-1,0.6-1.6,0.6c-1.7,0-2.8-0.9-2.8-2.3s1.1-2.2,2.9-2.2h1.4l0,0
		c-0.1-0.6-0.6-1-1.4-1c-0.3,0-0.6,0.1-1,0.1l-0.6,0.2c-0.1,0-0.2,0-0.2-0.1l-0.5-1.5c0-0.1,0-0.2,0.1-0.2L266.5,63.6z M268,67.8
		c-0.4,0-0.7,0.2-0.7,0.6s0.3,0.6,0.8,0.6c0.8,0,1.2-0.4,1.3-1.2l0,0H268z"/>
	<path class="st7" d="M280,65.2c0,0.1-0.1,0.2-0.2,0.2c-1.6,0.1-2.1,1-2.1,3.9v1.2c0,0.1-0.1,0.2-0.2,0.2h-1.9
		c-0.1,0-0.2-0.1-0.2-0.2v-6.8c0-0.1,0.1-0.2,0.2-0.2h1c0.1,0,0.2,0,0.2,0.1l0.4,0.6c0.1,0.2,0.2,0.2,0.4,0c0.6-0.7,1.2-0.9,2.2-0.9
		c0.1,0,0.2,0.1,0.2,0.2V65.2z"/>
	<path class="st7" d="M287,73.7c0,0.1-0.1,0.1-0.2,0.1h-2c-0.1,0-0.2-0.1-0.1-0.2l0.5-1.4c0.5-1.3,0.3-2.3-0.4-4.1l-1.6-4.4
		c-0.1-0.1,0-0.2,0.1-0.2h2c0.1,0,0.2,0,0.2,0.1l0.6,1.6c0.3,0.8,0.6,2,0.7,2.7c0,0.2,0.2,0.2,0.3,0c0.1-0.7,0.4-1.9,0.7-2.7
		l0.6-1.6c0-0.1,0.1-0.2,0.2-0.2h2c0.1,0,0.2,0.1,0.1,0.2L287,73.7z"/>
</g>
<g>
	<path class="st8" d="M106.2,84.5C106.3,84.5,106.3,84.5,106.2,84.5l0.1,3.9c0,0.1,0,0.1-0.1,0.1l-0.2,0.1l-0.9,0.3
		c-0.7,0.3-1.2,0.3-1.9,0.3c-2.5,0-4-1.8-4-4.8s1.5-4.8,4-4.8c0.8,0,1.2,0.1,2,0.4l0.6,0.2c0.1,0,0.1,0.1,0.1,0.1l-0.2,0.6
		c0,0.1-0.1,0.1-0.1,0.1l-0.6-0.2c-0.6-0.2-1-0.3-1.7-0.3c-1.9,0-3,1.5-3,4s1.1,4,3,4c0.7,0,1.1-0.1,1.6-0.3l0.6-0.2v-2.6h-1.9
		c-0.1,0-0.1-0.1-0.1-0.1l0.2-0.6c0-0.1,0.1-0.1,0.1-0.1L106.2,84.5L106.2,84.5z"/>
	<path class="st8" d="M112,91.9C112,92,111.9,92,112,91.9l-0.8,0.1c-0.1,0-0.1-0.1-0.1-0.1l0.9-2.1c0.3-0.7,0.2-1.4-0.2-2.3
		l-2.1-4.7c0-0.1,0-0.2,0.1-0.2h0.7c0.1,0,0.1,0,0.1,0.1l1.6,3.6c0.2,0.5,0.4,1.1,0.5,1.5c0,0.1,0.1,0.1,0.2,0
		c0.1-0.4,0.3-1,0.5-1.5l1.6-3.6c0-0.1,0.1-0.1,0.1-0.1h0.7c0.1,0,0.1,0.1,0.1,0.2L112,91.9z"/>
	<path class="st8" d="M120.4,83.5c0,0.1,0.1,0.1,0.2,0c0.5-0.7,1.2-1.1,2.2-1.1c1.5,0,2.4,1,2.4,2.6v4c0,0.1,0,0.1-0.1,0.1h-0.6
		c-0.1,0-0.1,0-0.1-0.1v-3.8c0-1.2-0.6-1.9-1.6-1.9c-1.3,0-2.1,1-2.1,2.7v3c0,0.1,0,0.1-0.1,0.1H120c-0.1,0-0.1,0-0.1-0.1v-6.3
		c0-0.1,0-0.1,0.1-0.1h0.4c0.1,0,0.1,0,0.1,0.1L120.4,83.5z"/>
	<path class="st8" d="M130,82.6c0.4-0.1,0.9-0.2,1.5-0.2c1.7,0,2.7,1,2.7,2.6v4c0,0.1,0,0.1-0.1,0.1h-0.4c-0.1,0-0.1,0-0.1-0.1v-0.6
		c0-0.2-0.1-0.2-0.3,0c-0.5,0.6-1.2,0.9-2.2,0.9c-1.4,0-2.2-0.7-2.2-2c0-1.2,0.8-2,2.4-2h2.1v-0.2c0-1.2-0.7-1.8-1.8-1.8
		c-0.5,0-0.9,0.1-1.2,0.2l-0.5,0.1c-0.1,0-0.1,0-0.2-0.1l-0.1-0.5c0-0.1,0-0.1,0.1-0.2L130,82.6z M131.2,86c-1,0-1.5,0.5-1.5,1.2
		c0,0.8,0.5,1.2,1.4,1.2c1.4,0,2.2-0.8,2.2-2.2V86H131.2z"/>
	<path class="st8" d="M142.3,89c-0.5,0.1-1,0.2-1.5,0.2c-1.9,0-3-1.3-3-3.4s1.1-3.4,3-3.4c1.5,0,2.5,0.7,2.5,2c0,1-0.6,1.5-1.8,1.7
		l-2.7,0.4c0.2,1.1,0.9,1.8,2,1.8c0.5,0,0.9-0.1,1.3-0.2l0.4-0.1c0.1,0,0.1,0,0.2,0.1l0.2,0.5c0,0.1,0,0.1-0.1,0.1L142.3,89z
		 M141.3,85.4c0.7-0.1,1.1-0.4,1.1-1c0-0.8-0.6-1.2-1.6-1.2c-1.3,0-2,0.9-2.1,2.6L141.3,85.4z"/>
	<path class="st8" d="M151.1,89c-0.4,0.1-0.9,0.2-1.3,0.2c-2,0-3.1-1.3-3.1-3.4s1.1-3.4,3.1-3.4c0.4,0,0.8,0.1,1.3,0.2l0.4,0.1
		c0.1,0,0.1,0.1,0.1,0.2l-0.2,0.5c0,0.1-0.1,0.1-0.1,0.1l-0.4-0.1c-0.4-0.1-0.7-0.2-1-0.2c-1.5,0-2.2,1-2.2,2.6s0.7,2.6,2.2,2.6
		c0.3,0,0.7-0.1,1.2-0.2l0.4-0.1c0.1,0,0.1,0,0.2,0.1l0.2,0.5c0,0.1,0,0.1-0.1,0.2L151.1,89z"/>
	<path class="st8" d="M160.8,85.8c0,2.1-1.1,3.4-3,3.4c-1.8,0-3-1.3-3-3.4s1.1-3.4,3-3.4S160.8,83.7,160.8,85.8z M155.8,85.8
		c0,1.6,0.8,2.6,2.1,2.6s2.1-1,2.1-2.6s-0.8-2.6-2.1-2.6C156.6,83.3,155.8,84.2,155.8,85.8z"/>
	<path class="st8" d="M165.5,87.9c0,0.3,0.1,0.5,0.4,0.5h0.1c0.1,0,0.1,0,0.1,0.1l0.2,0.5c0,0.1,0,0.1-0.1,0.2
		c-0.1,0-0.3,0.1-0.4,0.1c-0.8,0-1.2-0.5-1.2-1.3v-8.3c0-0.1,0-0.1,0.1-0.1h0.6c0.1,0,0.1,0,0.1,0.1L165.5,87.9L165.5,87.9z"/>
	<path class="st8" d="M175.5,85.8c0,2.1-1.1,3.4-3,3.4c-1.8,0-3-1.3-3-3.4s1.1-3.4,3-3.4S175.5,83.7,175.5,85.8z M170.5,85.8
		c0,1.6,0.8,2.6,2.1,2.6s2.1-1,2.1-2.6s-0.8-2.6-2.1-2.6C171.2,83.3,170.5,84.2,170.5,85.8z"/>
	<path class="st8" d="M180.4,91.1c0.3,0.1,0.9,0.2,1.3,0.2c1.3,0,2.1-0.6,2.2-1.9c0-1.1,0-0.8,0.1-1.2c0-0.1-0.1-0.1-0.2,0
		c-0.4,0.6-1.1,1.1-2.1,1.1c-1.7,0-2.8-1.3-2.8-3.4s1.1-3.4,3-3.4c0.6,0,1.2,0.1,1.7,0.4l1,0.4c0.1,0,0.1,0.1,0.1,0.1v5.9
		c0,1.8-1,2.8-3,2.8c-0.5,0-1.2-0.1-1.6-0.2l-0.6-0.2c-0.1,0-0.1-0.1-0.1-0.2l0.2-0.5c0-0.1,0.1-0.1,0.1-0.1L180.4,91.1z
		 M183.3,83.6c-0.3-0.2-0.8-0.3-1.4-0.3c-1.3,0-2.1,0.9-2.1,2.6c0,1.5,0.7,2.6,2,2.6c1.4,0,2.1-1.1,2.1-2.7v-1.9L183.3,83.6z"/>
	<path class="st8" d="M190,89c0,0.1,0,0.1-0.1,0.1h-0.6c-0.1,0-0.1,0-0.1-0.1v-5.6h-0.6c-0.1,0-0.1,0-0.1-0.1v-0.6
		c0-0.1,0-0.1,0.1-0.1h1.4c0.1,0,0.1,0,0.1,0.1L190,89L190,89z M190,80c0,0.4-0.2,0.6-0.6,0.6c-0.4,0-0.6-0.2-0.6-0.6
		s0.2-0.6,0.6-0.6S190,79.6,190,80z"/>
	<path class="st8" d="M195.4,85.9c-1-0.3-1.5-0.8-1.5-1.7c0-1.1,0.9-1.8,2.3-1.8c0.6,0,1.2,0.1,1.6,0.2l0.5,0.2
		c0.1,0,0.1,0.1,0.1,0.2l-0.1,0.5c0,0.1-0.1,0.1-0.2,0.1l-0.5-0.1c-0.4-0.1-0.9-0.2-1.4-0.2c-0.9,0-1.5,0.4-1.5,1
		c0,0.5,0.3,0.8,0.9,1l1.6,0.4c1.1,0.3,1.5,0.8,1.5,1.7c0,1.2-0.9,1.9-2.5,1.9c-0.8,0-1.5-0.1-2.1-0.3l-0.4-0.1
		c-0.1,0-0.1-0.1-0.1-0.2l0.2-0.5c0-0.1,0.1-0.1,0.1-0.1l0.4,0.1c0.5,0.2,1.1,0.3,1.8,0.3c1,0,1.6-0.4,1.6-1.1c0-0.5-0.3-0.8-0.9-1
		L195.4,85.9z"/>
	<path class="st8" d="M205.3,82.6c0.1,0,0.1,0,0.1,0.1v0.6c0,0.1,0,0.1-0.1,0.1h-1.5v4.1c0,0.6,0.3,0.9,0.7,0.9c0.1,0,0.2,0,0.4-0.1
		c0.1,0,0.1,0,0.2,0.1l0.2,0.5c0,0.1,0,0.1-0.1,0.2c-0.2,0.1-0.4,0.1-0.7,0.1c-1,0-1.6-0.6-1.6-1.7v-4.1h-0.6c-0.1,0-0.1,0-0.1-0.1
		v-0.6c0-0.1,0-0.1,0.1-0.1h0.6V81c0-0.1,0-0.1,0.1-0.1l0.7-0.2c0.1,0,0.1,0,0.1,0.1v1.9h1.5V82.6z"/>
	<path class="st8" d="M220.7,89.1c-0.1,0-0.1,0-0.2-0.1l-1.5-1.6l-0.9,0.8c-0.8,0.7-1.4,1-2.3,1c-1.3,0-2.1-0.8-2.1-2
		c0-0.8,0.2-1.3,1.1-2.1l1-1c-0.7-0.8-1-1.4-1-2.2c0-1.4,1.1-2.4,2.7-2.4c0.7,0,1.1,0.1,1.8,0.3l0.5,0.2c0.1,0,0.1,0.1,0.1,0.2
		l-0.2,0.5c0,0.1-0.1,0.1-0.1,0.1l-0.5-0.2c-0.5-0.2-0.9-0.3-1.5-0.3c-1.1,0-1.8,0.6-1.8,1.5c0,0.6,0.2,1,0.8,1.8l2.4,2.6l0.2-0.1
		c0.7-0.7,1-0.9,1-1.6v-0.4h-0.9c-0.1,0-0.1,0-0.1-0.1v-0.6c0-0.1,0-0.1,0.1-0.1h1.6c0.1,0,0.1,0,0.1,0.1v1.1c0,0.9-0.4,1.4-1.3,2.2
		l-0.1,0.1l1.9,2c0.1,0.1,0,0.1-0.1,0.1h-0.7V89.1z M216.4,84.8l-1.1,1c-0.6,0.6-0.7,1-0.7,1.4c0,0.7,0.4,1.1,1.2,1.1
		c0.7,0,1.1-0.2,1.7-0.8l0.8-0.8L216.4,84.8z"/>
	<path class="st8" d="M236.1,88.3c0.1,0,0.1,0,0.1,0.1V89c0,0.1,0,0.1-0.1,0.1h-5.4c-0.1,0-0.1,0-0.1-0.1v-9.1c0-0.1,0-0.1,0.1-0.1
		h0.7c0.1,0,0.1,0,0.1,0.1v8.4H236.1z"/>
	<path class="st8" d="M240.7,82.6c0.4-0.1,0.9-0.2,1.5-0.2c1.7,0,2.7,1,2.7,2.6v4c0,0.1,0,0.1-0.1,0.1h-0.4c-0.1,0-0.1,0-0.1-0.1
		v-0.6c0-0.2-0.1-0.2-0.3,0c-0.5,0.6-1.2,0.9-2.2,0.9c-1.4,0-2.2-0.7-2.2-2c0-1.2,0.8-2,2.4-2h2.1v-0.2c0-1.2-0.7-1.8-1.8-1.8
		c-0.5,0-0.9,0.1-1.2,0.2l-0.5,0.1c-0.1,0-0.1,0-0.2-0.1l-0.1-0.5c0-0.1,0-0.1,0.1-0.2L240.7,82.6z M241.9,86c-1,0-1.5,0.5-1.5,1.2
		c0,0.8,0.5,1.2,1.4,1.2c1.4,0,2.2-0.8,2.2-2.2V86H241.9z"/>
	<path class="st8" d="M249.6,83.5c0,0.1,0.1,0.1,0.2,0c0.5-0.7,1.2-1.1,2.1-1.1c1.7,0,2.8,1.3,2.8,3.4s-1.1,3.4-2.9,3.4
		c-0.6,0-1-0.1-1.6-0.3l-0.4-0.2v3.1c0,0.1,0,0.1-0.1,0.1H249c-0.1,0-0.1,0-0.1-0.1v-9.1c0-0.1,0-0.1,0.1-0.1h0.4
		c0.1,0,0.1,0,0.1,0.1L249.6,83.5z M250.3,88.1c0.4,0.2,0.8,0.3,1.4,0.3c1.3,0,2.1-1,2.1-2.6s-0.7-2.6-2-2.6s-2,1.2-2,2.7v1.9
		L250.3,88.1z"/>
	<path class="st8" d="M259.2,82.6c0.4-0.1,0.9-0.2,1.5-0.2c1.7,0,2.7,1,2.7,2.6v4c0,0.1,0,0.1-0.1,0.1h-0.4c-0.1,0-0.1,0-0.1-0.1
		v-0.6c0-0.2-0.1-0.2-0.3,0c-0.5,0.6-1.2,0.9-2.2,0.9c-1.4,0-2.2-0.7-2.2-2c0-1.2,0.8-2,2.4-2h2.1v-0.2c0-1.2-0.7-1.8-1.8-1.8
		c-0.5,0-0.9,0.1-1.2,0.2l-0.5,0.1c-0.1,0-0.1,0-0.2-0.1l-0.1-0.5c0-0.1,0-0.1,0.1-0.2L259.2,82.6z M260.4,86c-1,0-1.5,0.5-1.5,1.2
		c0,0.8,0.5,1.2,1.4,1.2c1.4,0,2.2-0.8,2.2-2.2V86H260.4z"/>
	<path class="st8" d="M270.7,83.1c0,0.1,0,0.1-0.1,0.1c-1.5,0.1-2.3,1.3-2.3,3.6V89c0,0.1,0,0.1-0.1,0.1h-0.6c-0.1,0-0.1,0-0.1-0.1
		v-6.3c0-0.1,0-0.1,0.1-0.1h0.4c0.1,0,0.1,0,0.1,0.1l0.1,1c0,0.1,0.1,0.1,0.2,0c0.5-0.8,1.2-1.3,2.2-1.3c0.1,0,0.1,0,0.1,0.1
		L270.7,83.1L270.7,83.1z"/>
	<path class="st8" d="M279.9,85.8c0,2.1-1.1,3.4-3,3.4c-1.8,0-3-1.3-3-3.4s1.1-3.4,3-3.4C278.7,82.4,279.9,83.7,279.9,85.8z
		 M274.8,85.8c0,1.6,0.8,2.6,2.1,2.6c1.3,0,2.1-1,2.1-2.6s-0.8-2.6-2.1-2.6C275.6,83.3,274.8,84.2,274.8,85.8z"/>
	<path class="st8" d="M284.9,85.9c-1-0.3-1.5-0.8-1.5-1.7c0-1.1,0.9-1.8,2.3-1.8c0.6,0,1.2,0.1,1.6,0.2l0.5,0.2
		c0.1,0,0.1,0.1,0.1,0.2l-0.1,0.5c0,0.1-0.1,0.1-0.2,0.1l-0.5-0.1c-0.4-0.1-0.9-0.2-1.4-0.2c-0.9,0-1.5,0.4-1.5,1
		c0,0.5,0.3,0.8,0.9,1l1.6,0.4c1.1,0.3,1.5,0.8,1.5,1.7c0,1.2-0.9,1.9-2.5,1.9c-0.8,0-1.5-0.1-2.1-0.3l-0.4-0.1
		c-0.1,0-0.1-0.1-0.1-0.2l0.2-0.5c0-0.1,0.1-0.1,0.1-0.1l0.4,0.1c0.5,0.2,1.1,0.3,1.8,0.3c1,0,1.6-0.4,1.6-1.1c0-0.5-0.3-0.8-0.9-1
		L284.9,85.9z"/>
	<path class="st8" d="M296.1,89c-0.4,0.1-0.9,0.2-1.3,0.2c-2,0-3.1-1.3-3.1-3.4s1.1-3.4,3.1-3.4c0.4,0,0.8,0.1,1.3,0.2l0.4,0.1
		c0.1,0,0.1,0.1,0.1,0.2l-0.2,0.5c0,0.1-0.1,0.1-0.1,0.1l-0.4-0.1c-0.4-0.1-0.7-0.2-1-0.2c-1.5,0-2.2,1-2.2,2.6s0.7,2.6,2.2,2.6
		c0.3,0,0.7-0.1,1.2-0.2l0.4-0.1c0.1,0,0.1,0,0.2,0.1l0.2,0.5c0,0.1,0,0.1-0.1,0.2L296.1,89z"/>
	<path class="st8" d="M305.9,85.8c0,2.1-1.1,3.4-3,3.4c-1.8,0-3-1.3-3-3.4s1.1-3.4,3-3.4S305.9,83.7,305.9,85.8z M300.8,85.8
		c0,1.6,0.8,2.6,2.1,2.6s2.1-1,2.1-2.6s-0.8-2.6-2.1-2.6S300.8,84.2,300.8,85.8z"/>
	<path class="st8" d="M310.4,83.5c0,0.1,0.1,0.1,0.2,0c0.5-0.7,1.2-1.1,2.1-1.1c1.7,0,2.8,1.3,2.8,3.4s-1.1,3.4-2.9,3.4
		c-0.6,0-1-0.1-1.6-0.3l-0.4-0.2v3.1c0,0.1,0,0.1-0.1,0.1h-0.6c-0.1,0-0.1,0-0.1-0.1v-9.1c0-0.1,0-0.1,0.1-0.1h0.4
		c0.1,0,0.1,0,0.1,0.1V83.5z M311.1,88.1c0.4,0.2,0.8,0.3,1.4,0.3c1.3,0,2.1-1,2.1-2.6s-0.7-2.6-2-2.6s-2,1.2-2,2.7v1.9L311.1,88.1z
		"/>
	<path class="st8" d="M320.4,89c0,0.1,0,0.1-0.1,0.1h-0.6c-0.1,0-0.1,0-0.1-0.1v-5.6H319c-0.1,0-0.1,0-0.1-0.1v-0.6
		c0-0.1,0-0.1,0.1-0.1h1.4c0.1,0,0.1,0,0.1,0.1L320.4,89L320.4,89z M320.4,80c0,0.4-0.2,0.6-0.6,0.6s-0.6-0.2-0.6-0.6
		s0.2-0.6,0.6-0.6S320.4,79.6,320.4,80z"/>
	<path class="st8" d="M328.6,89c-0.4,0.1-0.9,0.2-1.3,0.2c-2,0-3.1-1.3-3.1-3.4s1.1-3.4,3.1-3.4c0.4,0,0.8,0.1,1.3,0.2l0.4,0.1
		c0.1,0,0.1,0.1,0.1,0.2l-0.2,0.5c0,0.1-0.1,0.1-0.1,0.1l-0.4-0.1c-0.4-0.1-0.7-0.2-1-0.2c-1.5,0-2.2,1-2.2,2.6s0.7,2.6,2.2,2.6
		c0.3,0,0.7-0.1,1.2-0.2l0.4-0.1c0.1,0,0.1,0,0.2,0.1l0.2,0.5c0,0.1,0,0.1-0.1,0.2L328.6,89z"/>
	<path class="st8" d="M339.9,84.4c-1.5-0.6-2-1.3-2-2.4c0-1.5,1.2-2.4,3-2.4c0.7,0,1.4,0.1,2.1,0.3l0.7,0.2c0.1,0,0.1,0.1,0.1,0.2
		l-0.2,0.6c0,0.1-0.1,0.1-0.1,0.1l-0.7-0.2c-0.6-0.2-1.2-0.3-1.8-0.3c-1.2,0-2,0.6-2,1.5c0,0.6,0.3,1.2,1.5,1.6l1.9,0.7
		c1.3,0.5,2.1,1.1,2.1,2.4c0,1.6-1.4,2.6-3.3,2.6c-1,0-1.8-0.2-2.6-0.5l-0.5-0.2c-0.1,0-0.1-0.1-0.1-0.1l0.2-0.6
		c0-0.1,0.1-0.1,0.1-0.1l0.5,0.2c0.7,0.2,1.3,0.4,2.3,0.4c1.3,0,2.4-0.6,2.4-1.7c0-0.8-0.7-1.3-1.5-1.6L339.9,84.4z"/>
	<path class="st8" d="M352.8,88.1c0-0.1-0.1-0.1-0.2,0c-0.5,0.7-1.2,1.1-2.2,1.1c-1.5,0-2.4-1-2.4-2.6v-3.9c0-0.1,0-0.1,0.1-0.1h0.6
		c0.1,0,0.1,0,0.1,0.1v3.8c0,1.2,0.6,1.9,1.6,1.9c1.3,0,2.1-1,2.1-2.7v-3c0-0.1,0-0.1,0.1-0.1h0.6c0.1,0,0.1,0,0.1,0.1V89
		c0,0.1,0,0.1-0.1,0.1H353c-0.1,0-0.1,0-0.1-0.1L352.8,88.1z"/>
	<path class="st8" d="M361,83.1c0,0.1,0,0.1-0.1,0.1c-1.5,0.1-2.3,1.3-2.3,3.6V89c0,0.1,0,0.1-0.1,0.1h-0.6c-0.1,0-0.1,0-0.1-0.1
		v-6.3c0-0.1,0-0.1,0.1-0.1h0.4c0.1,0,0.1,0,0.1,0.1l0.1,1c0,0.1,0.1,0.1,0.2,0c0.5-0.8,1.2-1.3,2.2-1.3c0.1,0,0.1,0,0.1,0.1
		L361,83.1L361,83.1z"/>
	<path class="st8" d="M365.6,91.1c0.3,0.1,0.9,0.2,1.3,0.2c1.3,0,2.1-0.6,2.2-1.9c0-1.1,0-0.8,0.1-1.2c0-0.1-0.1-0.1-0.2,0
		c-0.4,0.6-1.1,1.1-2.1,1.1c-1.7,0-2.8-1.3-2.8-3.4s1.1-3.4,3-3.4c0.6,0,1.2,0.1,1.7,0.4l1,0.4c0.1,0,0.1,0.1,0.1,0.1v5.9
		c0,1.8-1,2.8-3,2.8c-0.5,0-1.2-0.1-1.6-0.2l-0.6-0.2c-0.1,0-0.1-0.1-0.1-0.2L365,91c0-0.1,0.1-0.1,0.1-0.1L365.6,91.1z M368.6,83.6
		c-0.3-0.2-0.8-0.3-1.4-0.3c-1.3,0-2.1,0.9-2.1,2.6c0,1.5,0.7,2.6,2,2.6c1.4,0,2.1-1.1,2.1-2.7v-1.9L368.6,83.6z"/>
	<path class="st8" d="M378.2,89c-0.5,0.1-1,0.2-1.5,0.2c-1.9,0-3-1.3-3-3.4s1.1-3.4,3-3.4c1.5,0,2.5,0.7,2.5,2c0,1-0.6,1.5-1.8,1.7
		l-2.7,0.4c0.2,1.1,0.9,1.8,2,1.8c0.5,0,0.9-0.1,1.3-0.2l0.4-0.1c0.1,0,0.1,0,0.2,0.1l0.2,0.5c0,0.1,0,0.1-0.1,0.1L378.2,89z
		 M377.2,85.4c0.7-0.1,1.1-0.4,1.1-1c0-0.8-0.6-1.2-1.6-1.2c-1.3,0-2,0.9-2.1,2.6L377.2,85.4z"/>
	<path class="st8" d="M388.5,85.8c0,2.1-1.1,3.4-3,3.4s-3-1.3-3-3.4s1.1-3.4,3-3.4S388.5,83.7,388.5,85.8z M383.5,85.8
		c0,1.6,0.8,2.6,2.1,2.6c1.3,0,2.1-1,2.1-2.6s-0.8-2.6-2.1-2.6C384.2,83.3,383.5,84.2,383.5,85.8z"/>
	<path class="st8" d="M393,83.5c0,0.1,0.1,0.1,0.2,0c0.5-0.7,1.2-1.1,2.2-1.1c1.5,0,2.4,1,2.4,2.6v4c0,0.1,0,0.1-0.1,0.1h-0.6
		c-0.1,0-0.1,0-0.1-0.1v-3.8c0-1.2-0.6-1.9-1.6-1.9c-1.3,0-2.1,1-2.1,2.7v3c0,0.1,0,0.1-0.1,0.1h-0.6c-0.1,0-0.1,0-0.1-0.1v-6.3
		c0-0.1,0-0.1,0.1-0.1h0.4c0.1,0,0.1,0,0.1,0.1L393,83.5z"/>
</g>
</svg>
